<?xml version="1.0" standalone="no"?>
<!DOCTYPE svg PUBLIC "-//W3C//DTD SVG 20010904//EN"
 "http://www.w3.org/TR/2001/REC-SVG-20010904/DTD/svg10.dtd">
<svg version="1.0" xmlns="http://www.w3.org/2000/svg"
 width="400.000000pt" height="400.000000pt" viewBox="0 0 400.000000 400.000000"
 preserveAspectRatio="xMidYMid meet">
<metadata>
Created by potrace 1.11, written by Peter Selinger 2001-2013
</metadata>
<g transform="translate(0.000000,400.000000) scale(0.100000,-0.100000)"
fill="#000000" stroke="none">
<path d="M1760 3939 c-369 -48 -740 -210 -1013 -444 -245 -209 -421 -447 -545
-739 -189 -440 -201 -981 -32 -1431 147 -393 413 -726 765 -958 645 -425 1500
-422 2146 9 414 276 717 714 824 1191 47 210 59 498 29 702 -127 872 -793
1538 -1665 1665 -115 17 -395 20 -509 5z m1251 -928 c54 -55 57 -48 -272 -695
-166 -325 -305 -595 -309 -599 -6 -7 -741 673 -747 692 -1 3 273 146 610 318
671 342 662 339 718 284z m-1073 -1086 c199 -187 362 -343 362 -346 0 -4 -270
-145 -601 -313 -662 -337 -653 -334 -710 -277 -56 56 -57 55 237 633 302 593
333 650 343 646 4 -2 170 -156 369 -343z"/>
</g>
</svg>
